# xmcd CD database file
#
# Track frame offsets:
#	150
#	13573
#	28440
#	44990
#	66885
#	82327
#	98047
#	114203
#	128846
#	146010
#	160970
#	173999
#	192851
#	206078
#	220532
#	235275
#
# Disc length: 3372 seconds
#
# Revision: 0
# Processed by: cddbd v1.4b42PL0 Copyright (c) Steve Scherf et al.
# Submitted via: CDex 1.40Beta6
#
DISCID=ed0d2a10
DTITLE=Various Artist - The Winners 7 [CD1]
DYEAR=1999
DGENRE=Country
TTITLE0=Dead Ringer Band - Hello Hopeville
TTITLE1=Adam Brand - Last man standing
TTITLE2=Crosby Sisters with Kevin Bennett - Leather and Lace
TTITLE3=Graeme Connors - When the rain tumbles down in July
TTITLE4=Sherrie' Austin - Good love comin on
TTITLE5=Tim O'Brien	/ The city drift
TTITLE6=Gina Jeffreys - Fool like that
TTITLE7=Colin Buchanan - That old caravan Song
TTITLE8=Vanya - Love is like a pillow
TTITLE9=Adam Harvey - Gypsy queen
TTITLE10=Karen Lynne - Half the moon
TTITLE11=Lee Kernaghan - Changi banjo
TTITLE12=Carol Young - True blue fool
TTITLE13=Troy Cassar-Daley and Slim Dusty - The biggest disappointment
TTITLE14=Michael Fix - Mr. Wonglepong
TTITLE15=Brielle - Cry
EXTD=
EXTT0=
EXTT1=
EXTT2=
EXTT3=
EXTT4=
EXTT5=
EXTT6=
EXTT7=
EXTT8=
EXTT9=
EXTT10=
EXTT11=
EXTT12=
EXTT13=
EXTT14=
EXTT15=
PLAYORDER=
